<?xml version="1.0" encoding="UTF-8" standalone="no"?>
<!DOCTYPE svg PUBLIC "-//W3C//DTD SVG 1.1//EN" "http://www.w3.org/Graphics/SVG/1.1/DTD/svg11.dtd">
<svg width="100%" height="100%" viewBox="0 0 1200 600" version="1.1" xmlns="http://www.w3.org/2000/svg" xmlns:xlink="http://www.w3.org/1999/xlink" xml:space="preserve" xmlns:serif="http://www.serif.com/" style="fill-rule:evenodd;clip-rule:evenodd;stroke-linejoin:round;stroke-miterlimit:2;">
    <g transform="matrix(6.52346,0,0,6.52346,130.662,99.4233)">
        <g id="product-heroes_1024x600">
            <g id="nav--slate-" serif:id="nav-(slate)">
                <g id="logo--slate-" serif:id="logo-(slate)">
                    <g id="logo">
                        <path id="Fill-1" d="M0,21.005L0,23.386L4.818,23.386L4.818,38.489L7.472,38.489L7.472,23.386L12.289,23.386L12.289,21.005L0,21.005Z" style="fill:rgb(49,53,56);"/>
                        <path id="Fill-2" d="M48.268,38.489L45.958,38.489L42.394,26.236L38.855,38.489L36.545,38.489L31.974,21.005L34.775,21.005L37.823,33.505L41.337,21.005L43.476,21.005L46.99,33.505L50.037,21.005L52.839,21.005L48.268,38.489Z" style="fill:rgb(49,53,56);"/>
                        <path id="Fill-3" d="M74.072,38.489L76.728,38.489L76.728,21.005L74.072,21.005L74.072,38.489Z" style="fill:rgb(49,53,56);"/>
                        <path id="Fill-4" d="M104.619,38.636C101.99,38.636 100.097,38.023 98.427,36.328L100.196,34.584C101.474,35.862 102.874,36.254 104.668,36.254C106.955,36.254 108.282,35.272 108.282,33.577C108.282,32.816 108.06,32.177 107.593,31.759C107.152,31.343 106.709,31.172 105.678,31.023L103.612,30.73C102.187,30.533 101.056,30.042 100.295,29.329C99.434,28.519 99.016,27.415 99.016,25.99C99.016,22.944 101.228,20.858 104.865,20.858C107.176,20.858 108.797,21.446 110.297,22.847L108.602,24.517C107.519,23.485 106.266,23.166 104.792,23.166C102.727,23.166 101.597,24.345 101.597,25.892C101.597,26.531 101.793,27.096 102.26,27.512C102.702,27.904 103.415,28.2 104.226,28.323L106.217,28.617C107.84,28.863 108.75,29.256 109.486,29.919C110.443,30.754 110.913,32.006 110.913,33.505C110.913,36.721 108.282,38.636 104.619,38.636Z" style="fill:rgb(49,53,56);"/>
                        <path id="Fill-6" d="M139.077,23.386L139.077,38.489L136.421,38.489L136.421,23.386L131.604,23.386L131.604,21.005L143.892,21.005L143.892,23.386L139.077,23.386Z" style="fill:rgb(49,53,56);"/>
                        <g>
                            <path id="Fill-9" d="M65.38,48.389C65.897,48.389 66.415,48.598 66.794,49.01C67.515,49.791 67.463,51.005 66.684,51.725L66.564,51.833C65.782,52.555 64.567,52.504 63.845,51.723C63.127,50.941 63.176,49.725 63.959,49.007L64.077,48.897C64.446,48.557 64.914,48.389 65.38,48.389" style="fill:rgb(89,186,123);"/>
                            <path id="Fill-11" d="M15.245,48.433C15.695,48.433 16.147,48.595 16.511,48.927C16.511,48.927 16.56,48.972 16.562,48.975L16.625,49.031C17.41,49.744 17.471,50.957 16.758,51.746C16.044,52.532 14.827,52.592 14.041,51.879L13.959,51.803C13.176,51.085 13.101,49.848 13.819,49.069C14.202,48.649 14.722,48.433 15.245,48.433" style="fill:rgb(89,186,123);"/>
                            <path id="Fill-13" d="M53.794,55.577C54.568,55.577 55.294,56.042 55.589,56.805C55.971,57.795 55.48,58.91 54.49,59.291L54.324,59.357C53.326,59.73 52.22,59.229 51.846,58.235C51.471,57.239 51.973,56.133 52.966,55.76L53.1,55.709C53.329,55.619 53.564,55.577 53.794,55.577" style="fill:rgb(89,186,123);"/>
                            <path id="Fill-15" d="M26.808,55.595C27.033,55.595 27.264,55.636 27.486,55.722L27.644,55.78C28.636,56.159 29.133,57.268 28.755,58.26C28.378,59.251 27.27,59.752 26.274,59.371L26.13,59.317C25.136,58.943 24.634,57.834 25.007,56.84C25.298,56.071 26.03,55.595 26.808,55.595" style="fill:rgb(89,186,123);"/>
                            <path id="Fill-17" d="M40.242,57.576L40.405,57.576C41.466,57.576 42.329,58.438 42.329,59.498C42.329,60.559 41.466,61.419 40.405,61.419L40.277,61.419C39.216,61.419 38.336,60.559 38.336,59.498C38.336,58.438 39.18,57.576 40.242,57.576" style="fill:rgb(89,186,123);"/>
                            <path id="Fill-19" d="M75.812,13.105C75.294,13.105 74.777,12.896 74.398,12.484C73.677,11.704 73.727,10.489 74.507,9.769L74.628,9.662C75.411,8.941 76.624,8.99 77.345,9.772C78.064,10.554 78.014,11.769 77.232,12.489L77.115,12.598C76.743,12.937 76.276,13.105 75.812,13.105" style="fill:rgb(89,186,123);"/>
                            <path id="Fill-21" d="M125.946,13.062C125.497,13.062 125.044,12.901 124.68,12.566C124.68,12.566 124.632,12.523 124.628,12.521L124.567,12.465C123.782,11.751 123.72,10.538 124.434,9.749C125.147,8.963 126.366,8.904 127.151,9.615L127.233,9.693C128.015,10.41 128.09,11.646 127.372,12.427C126.987,12.847 126.469,13.062 125.946,13.062" style="fill:rgb(89,186,123);"/>
                            <path id="Fill-23" d="M87.395,5.918C86.624,5.918 85.898,5.451 85.602,4.69C85.219,3.7 85.711,2.587 86.701,2.204L86.868,2.139C87.865,1.765 88.971,2.266 89.347,3.261C89.721,4.254 89.218,5.361 88.225,5.736L88.09,5.787C87.862,5.877 87.627,5.918 87.395,5.918" style="fill:rgb(89,186,123);"/>
                            <path id="Fill-25" d="M114.384,5.9C114.159,5.9 113.928,5.86 113.706,5.774L113.548,5.716C112.554,5.338 112.057,4.227 112.436,3.234C112.814,2.243 113.921,1.744 114.916,2.124L115.06,2.178C116.055,2.551 116.559,3.66 116.184,4.654C115.894,5.424 115.16,5.9 114.384,5.9" style="fill:rgb(89,186,123);"/>
                            <path id="Fill-27" d="M100.947,3.918L100.788,3.918C99.725,3.918 98.863,3.057 98.863,1.997C98.863,0.936 99.725,0.075 100.788,0.075L100.914,0.075C101.977,0.075 102.856,0.936 102.856,1.997C102.856,3.057 102.012,3.918 100.947,3.918" style="fill:rgb(89,186,123);"/>
                        </g>
                        <g>
                            <path id="Fill-29" d="M76.748,48.949L75.416,48.949L75.416,50.648L76.748,50.648C77.336,50.648 77.665,50.288 77.665,49.794C77.665,49.301 77.336,48.949 76.748,48.949M76.67,46.592L75.416,46.592L75.416,48.189L76.67,48.189C77.211,48.189 77.579,47.907 77.579,47.39C77.579,46.873 77.211,46.592 76.67,46.592M76.827,51.407L74.57,51.407L74.57,45.832L76.74,45.832C77.775,45.832 78.425,46.419 78.425,47.359C78.425,47.962 78.049,48.393 77.673,48.541C78.104,48.714 78.512,49.129 78.512,49.834C78.512,50.859 77.814,51.407 76.827,51.407" style="fill:rgb(89,186,123);"/>
                            <path id="Fill-31" d="M82.116,51.407L82.963,51.407L82.963,45.832L82.116,45.832L82.116,51.407Z" style="fill:rgb(89,186,123);"/>
                            <path id="Fill-33" d="M89.404,46.889C89.209,46.678 88.903,46.545 88.574,46.545C88.245,46.545 87.939,46.678 87.743,46.889C87.469,47.187 87.414,47.5 87.414,48.62C87.414,49.74 87.469,50.053 87.743,50.35C87.939,50.562 88.245,50.695 88.574,50.695C88.903,50.695 89.209,50.562 89.404,50.35C89.679,50.053 89.734,49.74 89.734,48.62C89.734,47.5 89.679,47.187 89.404,46.889M90.047,50.859C89.663,51.243 89.169,51.454 88.574,51.454C87.978,51.454 87.492,51.243 87.108,50.859C86.56,50.311 86.568,49.692 86.568,48.62C86.568,47.547 86.56,46.928 87.108,46.38C87.492,45.996 87.978,45.785 88.574,45.785C89.169,45.785 89.663,45.996 90.047,46.38C90.596,46.928 90.58,47.547 90.58,48.62C90.58,49.692 90.596,50.311 90.047,50.859" style="fill:rgb(89,186,123);"/>
                            <path id="Fill-34" d="M95.666,51.454C94.827,51.454 94.224,51.259 93.691,50.718L94.255,50.162C94.663,50.569 95.109,50.695 95.682,50.695C96.411,50.695 96.834,50.381 96.834,49.841C96.834,49.599 96.763,49.395 96.614,49.262C96.473,49.129 96.332,49.074 96.003,49.027L95.345,48.933C94.89,48.87 94.53,48.714 94.287,48.487C94.012,48.228 93.879,47.876 93.879,47.422C93.879,46.451 94.585,45.785 95.744,45.785C96.481,45.785 96.998,45.973 97.476,46.419L96.935,46.952C96.591,46.623 96.191,46.521 95.721,46.521C95.063,46.521 94.702,46.897 94.702,47.39C94.702,47.594 94.765,47.774 94.913,47.907C95.055,48.032 95.282,48.126 95.541,48.166L96.175,48.26C96.693,48.338 96.982,48.463 97.218,48.674C97.523,48.941 97.672,49.34 97.672,49.818C97.672,50.843 96.834,51.454 95.666,51.454" style="fill:rgb(89,186,123);"/>
                            <path id="Fill-35" d="M102.962,51.454C102.382,51.454 101.881,51.243 101.496,50.859C100.948,50.311 100.956,49.692 100.956,48.62C100.956,47.547 100.948,46.928 101.496,46.38C101.881,45.997 102.382,45.785 102.962,45.785C103.989,45.785 104.757,46.388 104.952,47.5L104.09,47.5C103.957,46.936 103.581,46.545 102.962,46.545C102.633,46.545 102.335,46.67 102.139,46.881C101.865,47.179 101.802,47.5 101.802,48.62C101.802,49.739 101.865,50.06 102.139,50.358C102.335,50.569 102.633,50.695 102.962,50.695C103.581,50.695 103.965,50.303 104.098,49.739L104.952,49.739C104.764,50.852 103.973,51.454 102.962,51.454" style="fill:rgb(89,186,123);"/>
                            <path id="Fill-36" d="M108.432,51.407L109.278,51.407L109.278,45.832L108.432,45.832L108.432,51.407Z" style="fill:rgb(89,186,123);"/>
                            <path id="Fill-37" d="M113.087,51.407L113.087,45.832L116.653,45.832L116.653,46.592L113.933,46.592L113.933,48.22L116.253,48.22L116.253,48.972L113.933,48.972L113.933,50.648L116.653,50.648L116.653,51.407L113.087,51.407Z" style="fill:rgb(89,186,123);"/>
                            <path id="Fill-38" d="M123.588,51.407L121.01,47.484L121.01,51.407L120.163,51.407L120.163,45.832L120.939,45.832L123.517,49.747L123.517,45.832L124.364,45.832L124.364,51.407L123.588,51.407Z" style="fill:rgb(89,186,123);"/>
                            <path id="Fill-39" d="M129.975,51.454C129.395,51.454 128.893,51.243 128.509,50.859C127.961,50.311 127.968,49.692 127.968,48.62C127.968,47.547 127.961,46.928 128.509,46.38C128.893,45.997 129.395,45.785 129.975,45.785C131.001,45.785 131.769,46.388 131.965,47.5L131.103,47.5C130.97,46.936 130.594,46.545 129.975,46.545C129.646,46.545 129.348,46.67 129.152,46.881C128.878,47.179 128.815,47.5 128.815,48.62C128.815,49.739 128.878,50.06 129.152,50.358C129.348,50.569 129.646,50.695 129.975,50.695C130.594,50.695 130.978,50.303 131.111,49.739L131.965,49.739C131.777,50.852 130.986,51.454 129.975,51.454" style="fill:rgb(89,186,123);"/>
                            <path id="Fill-40" d="M135.445,51.407L135.445,45.832L139.011,45.832L139.011,46.592L136.291,46.592L136.291,48.22L138.611,48.22L138.611,48.972L136.291,48.972L136.291,50.648L139.011,50.648L139.011,51.407L135.445,51.407Z" style="fill:rgb(89,186,123);"/>
                        </g>
                    </g>
                </g>
            </g>
        </g>
    </g>
</svg>
