<?xml version="1.0" encoding="UTF-8" standalone="no"?>
<!DOCTYPE svg PUBLIC "-//W3C//DTD SVG 1.1//EN" "http://www.w3.org/Graphics/SVG/1.1/DTD/svg11.dtd">
<svg width="100%" height="100%" viewBox="0 0 1200 600" version="1.1" xmlns="http://www.w3.org/2000/svg" xmlns:xlink="http://www.w3.org/1999/xlink" xml:space="preserve" xmlns:serif="http://www.serif.com/" style="fill-rule:evenodd;clip-rule:evenodd;stroke-linejoin:round;stroke-miterlimit:2;">
    <g transform="matrix(5.27729,0,0,5.27729,130.662,84.5759)">
        <rect x="0" y="0.642" width="177.871" height="80.358" style="fill:rgb(99,0,61);fill-rule:nonzero;"/>
        <g>
            <path d="M159.698,14.518C157.362,14.518 155.469,16.412 155.469,18.748C155.469,21.084 157.362,22.978 159.698,22.978C162.034,22.978 163.928,21.084 163.928,18.748C163.928,16.412 162.034,14.518 159.698,14.518Z" style="fill:white;fill-rule:nonzero;"/>
            <path d="M150.582,29.327C152.026,29.327 153.198,28.155 153.198,26.709C153.198,25.266 152.026,24.094 150.582,24.094C149.137,24.094 147.966,25.266 147.966,26.709C147.966,28.155 149.137,29.327 150.582,29.327Z" style="fill:white;fill-rule:nonzero;"/>
            <rect x="52.296" y="33.769" width="2.813" height="15.843" style="fill:white;fill-rule:nonzero;"/>
            <path d="M84.214,33.443C79.877,33.443 76.605,36.996 76.605,41.706C76.605,46.415 80.003,49.966 84.512,49.966C87.173,49.966 89.179,49.052 91.015,47.005L91.194,46.806L89.381,45.184L89.203,45.37C87.85,46.789 86.377,47.45 84.569,47.45C81.888,47.45 79.875,45.594 79.481,42.8L91.559,42.8L91.586,42.563C91.617,42.283 91.617,42.039 91.617,41.824C91.617,36.811 88.641,33.443 84.214,33.443ZM79.481,40.58C79.867,37.81 81.756,35.901 84.154,35.901C87.127,35.901 88.462,38.266 88.746,40.58L79.481,40.58Z" style="fill:white;fill-rule:nonzero;"/>
            <path d="M25.292,49.611L28.076,49.611L28.076,33.769L25.292,33.769L25.292,42.801C25.292,45.468 23.515,47.33 20.969,47.33C18.484,47.33 17.001,45.704 17.001,42.978L17.001,33.769L14.188,33.769L14.188,43.54C14.188,47.426 16.595,49.937 20.317,49.937C22.401,49.937 24.037,49.147 25.292,47.529L25.292,49.611Z" style="fill:white;fill-rule:nonzero;"/>
            <path d="M44.361,40.402L44.361,49.611L47.174,49.611L47.174,39.839C47.174,35.954 44.767,33.443 41.045,33.443C38.966,33.443 37.297,34.249 36.07,35.839L36.07,33.769L33.257,33.769L33.257,49.611L36.07,49.611L36.07,40.579C36.07,37.912 37.847,36.05 40.393,36.05C42.877,36.05 44.361,37.676 44.361,40.402Z" style="fill:white;fill-rule:nonzero;"/>
            <path d="M68.046,49.729L74.939,33.769L71.897,33.769L66.895,46.031L61.921,33.769L58.819,33.769L65.682,49.729L68.046,49.729Z" style="fill:white;fill-rule:nonzero;"/>
            <path d="M98.486,43.246C98.486,39.142 100.765,36.493 104.291,36.493L104.735,36.493L104.735,33.513L104.479,33.504C102.021,33.401 99.841,34.679 98.486,36.938L98.486,33.768L95.673,33.768L95.673,49.61L98.486,49.61L98.486,43.246Z" style="fill:white;fill-rule:nonzero;"/>
            <path d="M137.537,49.877C138.603,49.877 139.517,49.662 140.414,49.195L140.558,49.122L140.558,46.581L140.175,46.764C139.428,47.125 138.818,47.272 138.071,47.272C136.494,47.272 135.761,46.547 135.761,44.991L135.761,36.316L140.618,36.316L140.618,33.769L135.761,33.769L135.761,28.545L132.948,30.098L132.948,33.769L129.977,33.769L129.977,36.316L132.948,36.316L132.948,45.289C132.948,48.248 134.578,49.877 137.537,49.877Z" style="fill:white;fill-rule:nonzero;"/>
            <path d="M151.047,49.966C153.709,49.966 155.717,49.052 157.552,47.006L157.73,46.806L155.918,45.184L155.74,45.37C154.386,46.788 152.913,47.45 151.107,47.45C148.424,47.45 146.411,45.594 146.018,42.801L158.094,42.801L158.122,42.564C158.154,42.282 158.154,42.038 158.154,41.823C158.154,36.811 155.179,33.443 150.75,33.443C146.412,33.443 143.142,36.996 143.142,41.705C143.142,46.415 146.54,49.966 151.047,49.966ZM150.692,35.902C153.662,35.902 154.998,38.266 155.281,40.58L146.018,40.58C146.402,37.809 148.292,35.902 150.692,35.902Z" style="fill:white;fill-rule:nonzero;"/>
            <path d="M114.198,40.354L114.142,40.336C112.244,39.759 110.449,39.213 110.449,37.915C110.449,36.747 111.532,35.96 113.145,35.96C114.537,35.96 116.096,36.47 117.53,37.398L117.761,37.548L119.07,35.375L118.857,35.234C117.216,34.15 115.103,33.502 113.204,33.502C109.979,33.502 107.726,35.415 107.726,38.151L107.726,38.21C107.726,41.297 110.765,42.162 112.983,42.79C115.038,43.365 116.608,43.91 116.608,45.288C116.608,46.582 115.442,47.45 113.707,47.45C112.001,47.45 110.225,46.791 108.566,45.548L108.348,45.384L106.889,47.44L107.084,47.597C108.843,49.021 111.334,49.908 113.589,49.908C117.007,49.908 119.304,47.956 119.304,45.05L119.304,44.991C119.304,41.886 116.23,40.964 114.198,40.354Z" style="fill:white;fill-rule:nonzero;"/>
            <rect x="123.803" y="33.769" width="2.813" height="15.843" style="fill:white;fill-rule:nonzero;"/>
            <path d="M29.994,54.722L24.819,66.882L27.528,66.882L28.632,64.175L33.736,64.175L34.84,66.882L37.617,66.882L32.444,54.722L29.994,54.722ZM29.58,61.828L31.184,57.912L32.788,61.828L29.58,61.828Z" style="fill:white;fill-rule:nonzero;"/>
            <path d="M138.641,54.722L133.466,66.882L136.175,66.882L137.278,64.175L142.383,64.175L143.487,66.882L146.264,66.882L141.089,54.722L138.641,54.722ZM138.227,61.828L139.831,57.912L141.435,61.828L138.227,61.828Z" style="fill:white;fill-rule:nonzero;"/>
            <path d="M152.265,59.655L149.384,54.808L146.278,54.808L150.918,62.121L150.918,66.881L153.574,66.881L153.574,62.071L158.215,54.808L155.195,54.808L152.265,59.655Z" style="fill:white;fill-rule:nonzero;"/>
            <path d="M19.18,54.809L14.247,54.809L14.247,66.881L16.904,66.881L16.904,63.261L18.921,63.261C21.63,63.261 23.803,61.812 23.803,59.016L23.803,58.983C23.803,56.515 22.061,54.809 19.18,54.809ZM21.112,59.069C21.112,60.104 20.336,60.898 19.008,60.898L16.904,60.898L16.904,57.207L18.956,57.207C20.284,57.207 21.112,57.844 21.112,59.034L21.112,59.069Z" style="fill:white;fill-rule:nonzero;"/>
            <path d="M114.253,64.639C112.183,64.639 110.752,62.915 110.752,60.845L110.752,60.811C110.752,58.741 112.217,57.05 114.253,57.05C115.46,57.05 116.408,57.569 117.34,58.414L119.03,56.464C117.908,55.361 116.547,54.603 114.269,54.603C110.562,54.603 107.974,57.413 107.974,60.845L107.974,60.879C107.974,64.346 110.613,67.089 114.166,67.089C116.495,67.089 117.874,66.26 119.117,64.932L117.425,63.224C116.477,64.087 115.632,64.639 114.253,64.639Z" style="fill:white;fill-rule:nonzero;"/>
            <path d="M87.187,59.655C85.101,59.121 84.581,58.862 84.581,58.068L84.581,58.035C84.581,57.447 85.117,56.981 86.136,56.981C87.153,56.981 88.206,57.428 89.273,58.172L90.654,56.171C89.429,55.189 87.929,54.635 86.17,54.635C83.704,54.635 81.943,56.084 81.943,58.276L81.943,58.31C81.943,60.706 83.514,61.378 85.946,62.001C87.963,62.519 88.376,62.863 88.376,63.536L88.376,63.571C88.376,64.278 87.721,64.708 86.635,64.708C85.255,64.708 84.116,64.138 83.031,63.243L81.46,65.123C82.909,66.416 84.755,67.055 86.583,67.055C89.188,67.055 91.016,65.708 91.016,63.312L91.016,63.277C91.016,61.172 89.635,60.293 87.187,59.655Z" style="fill:white;fill-rule:nonzero;"/>
            <path d="M125.188,54.809L122.531,54.809L122.531,66.881L131.207,66.881L131.207,64.468L125.188,64.468L125.188,54.809Z" style="fill:white;fill-rule:nonzero;"/>
            <path d="M98.503,54.722L93.331,66.882L96.037,66.882L97.141,64.175L102.248,64.175L103.351,66.882L106.127,66.882L100.951,54.722L98.503,54.722ZM98.089,61.828L99.694,57.912L101.298,61.828L98.089,61.828Z" style="fill:white;fill-rule:nonzero;"/>
            <rect x="73.372" y="60.276" width="5.312" height="2.518" style="fill:white;fill-rule:nonzero;"/>
            <path d="M50.846,58.828L50.846,58.793C50.846,56.308 49.138,54.808 46.293,54.808L40.773,54.808L40.773,66.881L43.429,66.881L43.429,63.019L45.517,63.019L48.105,66.881L51.208,66.881L48.259,62.57C49.795,62.001 50.846,60.777 50.846,58.828ZM48.155,58.965C48.155,59.983 47.414,60.673 46.12,60.673L43.429,60.673L43.429,57.207L46.069,57.207C47.363,57.207 48.155,57.792 48.155,58.93L48.155,58.965Z" style="fill:white;fill-rule:nonzero;"/>
            <rect x="54.659" y="54.808" width="2.655" height="12.073" style="fill:white;fill-rule:nonzero;"/>
            <path d="M66.524,59.655C64.436,59.121 63.919,58.862 63.919,58.068L63.919,58.035C63.919,57.447 64.455,56.981 65.472,56.981C66.491,56.981 67.542,57.428 68.611,58.172L69.99,56.171C68.767,55.189 67.265,54.635 65.505,54.635C63.04,54.635 61.281,56.084 61.281,58.276L61.281,58.31C61.281,60.706 62.85,61.378 65.282,62.001C67.301,62.519 67.713,62.863 67.713,63.536L67.713,63.571C67.713,64.278 67.059,64.708 65.973,64.708C64.593,64.708 63.454,64.138 62.369,63.243L60.798,65.123C62.247,66.416 64.092,67.055 65.92,67.055C68.524,67.055 70.354,65.708 70.354,63.312L70.354,63.277C70.354,61.172 68.973,60.293 66.524,59.655Z" style="fill:white;fill-rule:nonzero;"/>
        </g>
    </g>
</svg>
