<?xml version="1.0" encoding="UTF-8" standalone="no"?>
<!DOCTYPE svg PUBLIC "-//W3C//DTD SVG 1.1//EN" "http://www.w3.org/Graphics/SVG/1.1/DTD/svg11.dtd">
<svg width="100%" height="100%" viewBox="0 0 1298 546" version="1.1" xmlns="http://www.w3.org/2000/svg" xmlns:xlink="http://www.w3.org/1999/xlink" xml:space="preserve" xmlns:serif="http://www.serif.com/" style="fill-rule:evenodd;clip-rule:evenodd;stroke-linecap:round;stroke-linejoin:round;">
    <g transform="matrix(4.16667,0,0,4.16667,-88.3538,-54.2079)">
        <g transform="matrix(1,0,0,1,84.296,103.796)">
            <path d="M0,-26.281l6.136,0l5.657,14.648l0.105,-0l5.66,-14.648l6.134,0l-11.845,26.281l-11.847,-26.281Z" style="fill:#005595;fill-rule:nonzero;"/>
        </g>
        <g transform="matrix(1,0,0,1,111.37,102.423)">
            <path d="M0,-24.908l5.184,0l-0,2.803l0.104,0c0.9,-2.116 2.803,-3.49 5.025,-3.49c1.216,0 2.274,0.316 3.014,0.792l-1.957,5.447c-0.529,-0.423 -1.533,-0.74 -2.062,-0.74c-2.01,0 -3.808,1.534 -3.808,3.86l-0,16.923l-5.5,-0l-0,-25.595Z" style="fill:#005595;fill-rule:nonzero;"/>
        </g>
        <g transform="matrix(1,0,0,1,57.3917,73.1338)">
            <path d="M0,-9.137l1.912,0l-0,4.982c-0,1.305 0.956,2.243 2.15,2.243c1.196,0 2.152,-0.938 2.152,-2.243l-0,-4.982l1.912,0l-0,5.147c-0,2.5 -1.949,3.99 -4.064,3.99c-2.113,0 -4.062,-1.49 -4.062,-3.99l-0,-5.147Z" style="fill:#f5821f;fill-rule:nonzero;"/>
        </g>
        <g transform="matrix(1,0,0,1,69.7804,72.6558)">
            <path d="M0,-8.659l1.912,0l-0,1.122l0.037,0c0.533,-0.828 1.507,-1.361 2.721,-1.361c1.875,0 3.456,1.563 3.456,3.769l0,5.368l-1.912,0l0,-4.945c0,-1.618 -0.846,-2.28 -2.114,-2.28c-1.232,0 -2.188,0.79 -2.188,2.243l0,4.982l-1.912,0l0,-8.898Z" style="fill:#f5821f;fill-rule:nonzero;"/>
        </g>
        <g transform="matrix(1,0,0,1,0,-23.137)">
            <path d="M82.206,87.134l1.912,0l0,8.898l-1.912,0l0,-8.898Zm0.956,-2.886c0.588,0 1.068,0.478 1.068,1.066c0,0.588 -0.48,1.066 -1.068,1.066c-0.588,-0 -1.065,-0.478 -1.065,-1.066c0,-0.588 0.477,-1.066 1.065,-1.066" style="fill:#f5821f;fill-rule:nonzero;"/>
        </g>
        <g transform="matrix(1,0,0,1,87.1691,73.1338)">
            <path d="M0,-9.137l2.133,0l1.967,5.093l0.037,0l1.967,-5.093l2.132,0l-4.118,9.137l-4.118,-9.137Z" style="fill:#f5821f;fill-rule:nonzero;"/>
        </g>
        <g transform="matrix(1,0,0,1,105.184,69.3646)">
            <path d="M0,-1.838c-0.404,-1.36 -1.415,-2.078 -2.629,-2.078c-1.213,0 -2.206,0.754 -2.518,2.078l5.147,0Zm1.765,3.438c-1.066,1.342 -2.537,2.151 -4.136,2.169c-3.108,0 -4.908,-2.335 -4.908,-4.688c-0,-2.353 1.8,-4.688 4.908,-4.688c1.856,0 4.614,1.526 4.614,5l0,0.35l-7.39,0c0.11,1.361 1.378,2.335 2.721,2.335c1.029,-0 1.911,-0.497 2.572,-1.379l1.619,0.901Z" style="fill:#f5821f;fill-rule:nonzero;"/>
        </g>
        <g transform="matrix(1,0,0,1,111.176,72.6558)">
            <path d="M0,-8.659l1.802,0l0,0.975l0.037,0c0.311,-0.736 0.974,-1.214 1.747,-1.214c0.422,0 0.789,0.111 1.047,0.276l-0.682,1.894c-0.182,-0.147 -0.531,-0.258 -0.716,-0.258c-0.698,0 -1.324,0.533 -1.324,1.342l-0,5.883l-1.911,0l-0,-8.898Z" style="fill:#f5821f;fill-rule:nonzero;"/>
        </g>
        <g transform="matrix(1,0,0,1,119.264,66.6438)">
            <path d="M0,3.604c0.68,0.735 1.802,1.305 2.795,1.305c1.102,0 1.765,-0.625 1.765,-1.121c-0,-0.588 -0.461,-0.901 -1.16,-1.03l-1.084,-0.202c-2.501,-0.46 -3.2,-1.269 -3.2,-2.537c-0,-1.508 1.27,-2.905 3.493,-2.905c1.233,0 2.318,0.368 3.531,1.232l-1.085,1.342c-0.938,-0.791 -1.764,-0.993 -2.389,-0.993c-0.828,-0 -1.637,0.405 -1.637,1.121c-0,0.534 0.423,0.809 1.159,0.938l1.929,0.368c1.58,0.294 2.354,1.048 2.354,2.372c0,1.305 -1.067,2.996 -3.768,2.996c-1.509,0 -2.796,-0.533 -4.009,-1.563l1.306,-1.323Z" style="fill:#f5821f;fill-rule:nonzero;"/>
        </g>
        <g transform="matrix(1,0,0,1,0,-23.137)">
            <path d="M129.19,87.134l1.911,0l0,8.898l-1.911,0l0,-8.898Zm0.956,-2.886c0.588,0 1.065,0.478 1.065,1.066c0,0.588 -0.477,1.066 -1.065,1.066c-0.588,-0 -1.067,-0.478 -1.067,-1.066c0,-0.588 0.479,-1.066 1.067,-1.066" style="fill:#f5821f;fill-rule:nonzero;"/>
        </g>
        <g transform="matrix(1,0,0,1,134.594,70.2478)">
            <path d="M0,-6.251l1.085,0l0,-2.353l1.911,-0.533l-0,2.886l1.525,0l0,1.802l-1.525,0l0,3.511c0,0.956 0.221,1.397 0.79,1.728l1.03,0.588l-0.845,1.508c-1.968,-0.937 -2.886,-1.618 -2.886,-3.475l0,-3.86l-1.085,0l0,-1.802Z" style="fill:#f5821f;fill-rule:nonzero;"/>
        </g>
        <g transform="matrix(1,0,0,1,145.493,72.2154)">
            <path d="M0,-10.517l3.604,-0.918l0,1.323l-3.604,0.919l0,-1.324Zm3.952,5.828c-0.403,-1.36 -1.415,-2.078 -2.629,-2.078c-1.212,-0 -2.205,0.754 -2.517,2.078l5.146,-0Zm1.765,3.438c-1.066,1.342 -2.537,2.151 -4.136,2.169c-3.106,-0 -4.908,-2.334 -4.908,-4.687c0,-2.353 1.802,-4.688 4.908,-4.688c1.857,-0 4.614,1.525 4.614,5l-0,0.349l-7.389,-0c0.109,1.361 1.379,2.335 2.72,2.335c1.031,-0 1.912,-0.497 2.575,-1.379l1.616,0.901Z" style="fill:#f5821f;fill-rule:nonzero;"/>
        </g>
        <g transform="matrix(1,0,0,1,145.901,113.58)">
            <path d="M0,-36.065l0,14.489c0,3.966 -2.063,6.611 -6.346,6.611c-3.384,-0 -6.028,-1.798 -6.028,-6.081l0,-15.019l-5.5,-0l0,14.807c0,7.191 4.653,11.474 10.365,11.474c3.542,-0 5.552,-1.057 7.721,-3.488l0.105,-0l0,1.373c0,4.364 -2.992,6.578 -6.504,6.704l0,5.195c4.758,-0 11.686,-3.437 11.686,-11.264l0,-24.801l-5.499,-0Z" style="fill:#005595;fill-rule:nonzero;"/>
        </g>
        <g transform="matrix(1,0,0,1,56.9757,113.609)">
            <path d="M0,-5.347l1.247,0l1.15,2.98l0.023,0l1.15,-2.98l1.248,0l-2.409,5.347l-2.409,-5.347Z" style="fill:#f5821f;fill-rule:nonzero;"/>
        </g>
        <g transform="matrix(1,0,0,1,65.9581,109.177)">
            <path d="M0,3.378c0.883,0 1.636,-0.753 1.636,-1.689c0,-0.936 -0.753,-1.689 -1.636,-1.689c-0.903,0 -1.655,0.753 -1.655,1.689c0,0.936 0.752,1.689 1.655,1.689m1.593,0.279l-0.023,0c-0.353,0.473 -1,0.775 -1.71,0.775c-1.71,0 -2.7,-1.398 -2.7,-2.743c0,-1.28 1.066,-2.743 2.754,-2.743c0.775,-0 1.366,0.334 1.656,0.775l0.023,-0l-0,-0.636l1.118,-0l-0,5.207l-1.118,0l-0,-0.635Z" style="fill:#f5821f;fill-rule:nonzero;"/>
        </g>
        <g transform="matrix(1,0,0,1,72.2531,113.609)">
            <path d="M0,-6.895l0,4.658c0,0.602 0.13,0.817 0.464,1.01l0.601,0.345l-0.495,0.882c-1.149,-0.549 -1.687,-0.946 -1.687,-2.033l0,-4.862l1.117,0Z" style="fill:#f5821f;fill-rule:nonzero;"/>
        </g>
        <g transform="matrix(1,0,0,1,0,62.889)">
            <rect x="74.739" y="46.6" width="2.152" height="1.054" style="fill:#f5821f;"/>
        </g>
        <g transform="matrix(1,0,0,1,81.5939,107.768)">
            <path d="M0,4.787c0.881,0 1.634,-0.753 1.634,-1.689c0,-0.936 -0.753,-1.689 -1.634,-1.689c-0.904,0 -1.657,0.753 -1.657,1.689c0,0.936 0.753,1.689 1.657,1.689m1.592,0.279l-0.023,0c-0.354,0.473 -1.001,0.775 -1.711,0.775c-1.71,0 -2.699,-1.398 -2.699,-2.743c0,-1.28 1.065,-2.743 2.753,-2.743c0.775,0 1.366,0.334 1.657,0.775l0.023,0l-0,-2.184l1.118,0l-0,6.755l-1.118,0l-0,-0.635Z" style="fill:#f5821f;fill-rule:nonzero;"/>
        </g>
        <g transform="matrix(1,0,0,1,86.672,108.714)">
            <path d="M0,-2l1.119,0l0,1.247l-1.119,0.753l0,-2Z" style="fill:#f5821f;fill-rule:nonzero;"/>
        </g>
        <g transform="matrix(1,0,0,1,94.1173,111.404)">
            <path d="M0,-1.076c-0.237,-0.796 -0.828,-1.216 -1.539,-1.216c-0.71,0 -1.29,0.441 -1.473,1.216l3.012,0Zm1.032,2.011c-0.624,0.786 -1.484,1.259 -2.42,1.27c-1.818,0 -2.872,-1.366 -2.872,-2.743c0,-1.377 1.054,-2.743 2.872,-2.743c1.086,0 2.7,0.893 2.7,2.926l-0,0.204l-4.324,-0c0.064,0.796 0.807,1.366 1.591,1.366c0.604,-0 1.119,-0.29 1.507,-0.807l0.946,0.527Z" style="fill:#f5821f;fill-rule:nonzero;"/>
        </g>
        <g transform="matrix(1,0,0,1,97.841,109.812)">
            <path d="M0,2.108c0.398,0.43 1.055,0.764 1.636,0.764c0.644,0 1.032,-0.365 1.032,-0.656c0,-0.345 -0.27,-0.527 -0.679,-0.603l-0.634,-0.118c-1.462,-0.269 -1.872,-0.743 -1.872,-1.485c0,-0.882 0.743,-1.699 2.044,-1.699c0.72,0 1.356,0.215 2.066,0.72l-0.634,0.786c-0.55,-0.463 -1.033,-0.581 -1.399,-0.581c-0.485,0 -0.957,0.237 -0.957,0.656c0,0.312 0.247,0.474 0.677,0.548l1.129,0.216c0.926,0.172 1.377,0.613 1.377,1.388c0,0.763 -0.624,1.753 -2.205,1.753c-0.883,0 -1.635,-0.312 -2.345,-0.915l0.764,-0.774Z" style="fill:#f5821f;fill-rule:nonzero;"/>
        </g>
        <g transform="matrix(1,0,0,1,103.845,109.812)">
            <path d="M0,2.108c0.397,0.43 1.055,0.764 1.635,0.764c0.645,0 1.033,-0.365 1.033,-0.656c0,-0.345 -0.27,-0.527 -0.678,-0.603l-0.635,-0.118c-1.462,-0.269 -1.872,-0.743 -1.872,-1.485c-0,-0.882 0.743,-1.699 2.044,-1.699c0.721,0 1.356,0.215 2.066,0.72l-0.634,0.786c-0.549,-0.463 -1.033,-0.581 -1.399,-0.581c-0.485,0 -0.957,0.237 -0.957,0.656c0,0.312 0.247,0.474 0.677,0.548l1.13,0.216c0.925,0.172 1.376,0.613 1.376,1.388c-0,0.763 -0.623,1.753 -2.204,1.753c-0.884,0 -1.636,-0.312 -2.346,-0.915l0.764,-0.774Z" style="fill:#f5821f;fill-rule:nonzero;"/>
        </g>
        <g transform="matrix(1,0,0,1,112.065,109.177)">
            <path d="M0,3.378c0.979,0 1.689,-0.753 1.689,-1.689c0,-0.936 -0.71,-1.689 -1.689,-1.689c-0.979,0 -1.689,0.753 -1.689,1.689c0,0.936 0.71,1.689 1.689,1.689m0,-4.432c1.818,0 2.872,1.366 2.872,2.743c-0,1.377 -1.054,2.743 -2.872,2.743c-1.817,0 -2.872,-1.366 -2.872,-2.743c0,-1.377 1.055,-2.743 2.872,-2.743" style="fill:#f5821f;fill-rule:nonzero;"/>
        </g>
        <g transform="matrix(1,0,0,1,116.993,113.33)">
            <path d="M0,-5.068l1.119,0l0,0.657l0.022,0c0.311,-0.484 0.881,-0.796 1.591,-0.796c1.098,0 2.023,0.915 2.023,2.205l-0,3.141l-1.119,0l-0,-2.893c-0,-0.947 -0.494,-1.334 -1.236,-1.334c-0.722,0 -1.281,0.462 -1.281,1.312l-0,2.915l-1.119,0l-0,-5.207Z" style="fill:#f5821f;fill-rule:nonzero;"/>
        </g>
        <g transform="matrix(1,0,0,1,124.191,113.33)">
            <path d="M0,-5.068l1.119,0l0,0.657l0.022,0c0.311,-0.484 0.881,-0.796 1.591,-0.796c1.098,0 2.023,0.915 2.023,2.205l-0,3.141l-1.119,0l-0,-2.893c-0,-0.947 -0.495,-1.334 -1.237,-1.334c-0.721,0 -1.28,0.462 -1.28,1.312l-0,2.915l-1.119,0l-0,-5.207Z" style="fill:#f5821f;fill-rule:nonzero;"/>
        </g>
        <g transform="matrix(1,0,0,1,135.349,111.404)">
            <path d="M0,-1.076c-0.236,-0.796 -0.828,-1.216 -1.538,-1.216c-0.71,0 -1.291,0.441 -1.475,1.216l3.013,0Zm1.032,2.011c-0.625,0.786 -1.484,1.259 -2.42,1.27c-1.817,0 -2.873,-1.366 -2.873,-2.743c0,-1.377 1.056,-2.743 2.873,-2.743c1.086,0 2.7,0.893 2.7,2.926l-0,0.204l-4.325,-0c0.066,0.796 0.808,1.366 1.593,1.366c0.603,-0 1.118,-0.29 1.506,-0.807l0.946,0.527Z" style="fill:#f5821f;fill-rule:nonzero;"/>
        </g>
        <g transform="matrix(-0.173698,-0.984799,-0.984799,0.173698,50.1613,34.0755)">
            <path d="M-5.783,-6.892c4.663,0.408 8.441,3.368 8.441,6.61c-0,3.243 -3.78,5.541 -8.441,5.134c-4.662,-0.408 -8.441,-3.366 -8.441,-6.61c-0.001,-3.243 3.779,-5.541 8.441,-5.134" style="fill:#f5821f;fill-rule:nonzero;"/>
        </g>
        <g transform="matrix(0,-1,-1,0,43.0619,48.5663)">
            <path d="M-4.596,-4.595c-3.648,0.319 -6.605,2.635 -6.605,5.174c-0,2.537 2.957,4.336 6.605,4.015c3.648,-0.317 6.606,-2.635 6.606,-5.172c-0,-2.539 -2.958,-4.337 -6.606,-4.018" style="fill:#005595;fill-rule:nonzero;"/>
        </g>
        <g transform="matrix(1,0,0,1,61.1359,123.316)">
            <path d="M0,-35.648c0.899,-3.807 3.755,-5.975 7.244,-5.975c3.491,0 6.4,2.062 7.563,5.975l-14.807,0Zm21.259,3.543c0,-9.994 -7.934,-14.383 -13.274,-14.383c-4.722,0 -8.395,1.876 -10.81,4.643c-2.714,-6.175 -7.529,-10.387 -12.442,-14.317c-0.723,0.912 -1.428,1.826 -2.109,2.742c4.073,3.835 7.91,8.36 9.949,15.204c2.677,8.976 -0.756,19.076 -6.258,28.335c-0.59,0.995 -1.206,1.981 -1.84,2.955c-9.902,15.201 -24.406,27.44 -24.406,27.44c0,0 14.798,-11.642 26.175,-25.971c0.679,-0.854 1.345,-1.718 1.993,-2.589c3.866,-5.181 7.164,-10.631 9.085,-15.954c2.416,2.677 6.034,4.48 10.663,4.48c4.601,-0.052 8.831,-2.379 11.899,-6.239l-4.654,-2.591c-1.905,2.538 -4.442,3.966 -7.404,3.966c-3.859,0 -7.509,-2.803 -7.826,-6.716l21.259,0l-0,-1.005Z" style="fill:#005595;fill-rule:nonzero;"/>
        </g>
        <g transform="matrix(1,0,0,1,92.714,115.27)">
            <path d="M0,27.44c0,-0 -26.314,-11.695 -43.341,-27.44c-0.648,0.871 -1.314,1.735 -1.993,2.589c18.335,14.83 45.334,24.851 45.334,24.851" style="fill:#f5821f;fill-rule:nonzero;"/>
        </g>
        <g transform="matrix(0.970855,-0.23967,-0.23967,-0.970855,36.9159,86.571)">
            <path d="M-0.503,2.02l16.59,-0c-0.168,0.822 -0.366,1.618 -0.592,2.391l-14.886,-0.51c-0.398,-0.617 -0.769,-1.245 -1.112,-1.881" style="fill:#f5821f;fill-rule:nonzero;"/>
        </g>
        <g transform="matrix(0.999169,-0.0407686,-0.0407686,-0.999169,35.4221,93.298)">
            <path d="M-0.062,0.392l19.304,-0c0.052,0.892 0.056,1.78 0.013,2.663l-19.371,-0.395c-0.022,-0.75 -0.006,-1.506 0.054,-2.268" style="fill:#f5821f;fill-rule:nonzero;"/>
        </g>
        <g transform="matrix(0.92308,-0.384608,-0.384608,-0.92308,40.0714,79.4486)">
            <path d="M-0.74,1.975l9.898,0c-0.247,0.806 -0.522,1.594 -0.812,2.366l-6.737,-0.53c-0.814,-0.596 -1.598,-1.207 -2.349,-1.836" style="fill:#f5821f;fill-rule:nonzero;"/>
        </g>
        <g transform="matrix(0.994639,0.103409,0.103409,-0.994639,38.2406,101.026)">
            <path d="M0.113,-0.687l14.197,-0c0.165,0.663 0.313,1.324 0.448,1.983l-16.345,0.826c0.503,-0.948 1.071,-1.884 1.7,-2.809" style="fill:#f5821f;fill-rule:nonzero;"/>
        </g>
        <g transform="matrix(0.916157,0.400819,0.400819,-0.916157,42.7597,107.297)">
            <path d="M0.318,-0.881l6.741,-0c0.051,0.602 0.093,1.202 0.127,1.802l-10.482,0.261c1.147,-0.726 2.354,-1.414 3.614,-2.063" style="fill:#f5821f;fill-rule:nonzero;"/>
        </g>
        <g transform="matrix(1,0,0,1,42.4933,33.9745)">
            <path d="M0,30.493c-8.894,-7.138 -16.544,-14.645 -10.527,-32.944c-8.159,21.239 -0.253,27.74 8.485,35.395l2.042,-2.451Z" style="fill:#005595;fill-rule:nonzero;"/>
        </g>
        <g transform="matrix(1,0,0,1,46.8048,16.0329)">
            <path d="M0,96.75c-5.745,-5.81 -10.053,-12.093 -11.252,-18.492c-1.61,-8.586 2.39,-16.568 8.207,-24.396c0.681,-0.916 1.386,-1.829 2.109,-2.741c11.191,-14.094 32.943,-30.733 26.983,-54.144c-0.639,24.688 -18.492,38.43 -29.715,51.972l-0.001,-0c-0.692,0.835 -1.37,1.671 -2.029,2.511c-6.79,8.646 -11.631,17.571 -10.037,27.47c1.204,7.482 6.66,14.551 13.865,20.843c0.291,-0.411 1.067,-1.545 1.87,-3.023" style="fill:#f5821f;fill-rule:nonzero;"/>
        </g>
        <g transform="matrix(-1,0,0,1,444.657,16.515)">
            <rect x="220.922" y="62.393" width="2.813" height="15.842" style="fill:#005595;"/>
        </g>
        <g transform="matrix(1,0,0,1,252.84,95.1052)">
            <path d="M0,-16.523c-4.338,0 -7.61,3.552 -7.61,8.262c0,4.71 3.399,8.261 7.907,8.261c2.662,-0 4.668,-0.914 6.504,-2.961l0.178,-0.199l-1.812,-1.622l-0.18,0.185c-1.352,1.419 -2.824,2.08 -4.633,2.08c-2.681,-0 -4.694,-1.855 -5.087,-4.649l12.078,0l0.027,-0.237c0.029,-0.281 0.029,-0.525 0.029,-0.74c0,-5.012 -2.974,-8.38 -7.401,-8.38m-4.733,7.136c0.384,-2.77 2.275,-4.678 4.672,-4.678c2.973,0 4.309,2.364 4.591,4.678l-9.263,0Z" style="fill:#005595;fill-rule:nonzero;"/>
        </g>
        <g transform="matrix(1,0,0,1,193.917,79.2342)">
            <path d="M0,15.516l2.784,0l0,-15.842l-2.784,0l0,9.032c0,2.667 -1.777,4.529 -4.323,4.529c-2.485,0 -3.968,-1.626 -3.968,-4.352l0,-9.209l-2.813,0l0,9.772c0,3.885 2.407,6.396 6.129,6.396c2.084,0 3.72,-0.79 4.975,-2.408l0,2.082Z" style="fill:#005595;fill-rule:nonzero;"/>
        </g>
        <g transform="matrix(1,0,0,1,212.986,87.7912)">
            <path d="M0,-2.25l0,9.209l2.813,0l-0,-9.772c-0,-3.885 -2.408,-6.396 -6.129,-6.396c-2.08,0 -3.748,0.806 -4.975,2.396l0,-2.07l-2.813,0l0,15.842l2.813,-0l0,-9.032c0,-2.667 1.776,-4.529 4.322,-4.529c2.485,-0 3.969,1.626 3.969,4.352" style="fill:#005595;fill-rule:nonzero;"/>
        </g>
        <g transform="matrix(1,0,0,1,236.672,78.9079)">
            <path d="M0,15.96l6.892,-15.96l-3.042,0l-5.002,12.262l-4.973,-12.262l-3.103,0l6.863,15.96l2.365,0Z" style="fill:#005595;fill-rule:nonzero;"/>
        </g>
        <g transform="matrix(1,0,0,1,267.111,84.905)">
            <path d="M0,3.479c0,-4.103 2.278,-6.752 5.804,-6.752l0.445,0l0,-2.98l-0.257,-0.009c-2.458,-0.103 -4.637,1.175 -5.992,3.434l-0,-3.17l-2.813,0l-0,15.842l2.813,0l-0,-6.365Z" style="fill:#005595;fill-rule:nonzero;"/>
        </g>
        <g transform="matrix(1,0,0,1,306.161,73.6843)">
            <path d="M0,21.332c1.066,0 1.98,-0.216 2.877,-0.682l0.144,-0.074l-0,-2.541l-0.382,0.184c-0.747,0.361 -1.358,0.508 -2.105,0.508c-1.577,0 -2.309,-0.725 -2.309,-2.281l0,-8.675l4.856,0l0,-2.547l-4.856,0l0,-5.224l-2.814,1.553l0,3.671l-2.971,0l0,2.547l2.971,0l0,8.972c0,2.959 1.63,4.589 4.589,4.589" style="fill:#005595;fill-rule:nonzero;"/>
        </g>
        <g transform="matrix(1,0,0,1,319.672,78.5822)">
            <path d="M0,16.523c2.662,0 4.67,-0.914 6.505,-2.96l0.178,-0.2l-1.812,-1.622l-0.178,0.186c-1.354,1.418 -2.827,2.08 -4.633,2.08c-2.683,0 -4.696,-1.856 -5.09,-4.649l12.077,0l0.028,-0.237c0.031,-0.282 0.031,-0.526 0.031,-0.741c0,-5.012 -2.974,-8.38 -7.403,-8.38c-4.338,0 -7.609,3.553 -7.609,8.262c0,4.71 3.399,8.261 7.906,8.261m-0.355,-14.064c2.97,-0 4.306,2.364 4.588,4.678l-9.263,-0c0.384,-2.771 2.275,-4.678 4.675,-4.678" style="fill:#005595;fill-rule:nonzero;"/>
        </g>
        <g transform="matrix(1,0,0,1,282.823,88.1944)">
            <path d="M0,-2.701l-0.057,-0.018c-1.898,-0.577 -3.692,-1.123 -3.692,-2.421c0,-1.169 1.083,-1.955 2.695,-1.955c1.392,0 2.951,0.51 4.386,1.438l0.231,0.15l1.309,-2.173l-0.213,-0.141c-1.642,-1.084 -3.755,-1.732 -5.654,-1.732c-3.225,0 -5.478,1.912 -5.478,4.649l-0,0.059c-0,3.087 3.039,3.951 5.258,4.58c2.054,0.574 3.625,1.119 3.625,2.497c-0,1.294 -1.166,2.162 -2.902,2.162c-1.706,0 -3.482,-0.658 -5.14,-1.901l-0.219,-0.164l-1.459,2.056l0.195,0.157c1.759,1.424 4.25,2.31 6.505,2.31c3.418,0 5.715,-1.952 5.715,-4.857l0,-0.06c0,-3.104 -3.073,-4.026 -5.105,-4.636" style="fill:#005595;fill-rule:nonzero;"/>
        </g>
        <g transform="matrix(-1,0,0,1,587.669,16.515)">
            <rect x="292.428" y="62.393" width="2.813" height="15.842" style="fill:#005595;"/>
        </g>
        <g transform="matrix(1,0,0,1,198.619,112.021)">
            <path d="M0,-12.16l-5.176,12.16l2.709,0l1.105,-2.707l5.103,0l1.105,2.707l2.776,0l-5.173,-12.16l-2.449,0Zm-0.414,7.106l1.603,-3.916l1.605,3.916l-3.208,0Z" style="fill:#005595;fill-rule:nonzero;"/>
        </g>
        <g transform="matrix(1,0,0,1,307.266,112.021)">
            <path d="M0,-12.16l-5.175,12.16l2.709,0l1.103,-2.707l5.105,0l1.104,2.707l2.777,0l-5.175,-12.16l-2.448,0Zm-0.414,7.106l1.603,-3.916l1.605,3.916l-3.208,0Z" style="fill:#005595;fill-rule:nonzero;"/>
        </g>
        <g transform="matrix(1,0,0,1,320.889,107.175)">
            <path d="M0,-2.381l-2.881,-4.846l-3.104,0l4.639,7.312l0,4.761l2.657,0l0,-4.811l4.639,-7.262l-3.018,0l-2.932,4.846Z" style="fill:#005595;fill-rule:nonzero;"/>
        </g>
        <g transform="matrix(1,0,0,1,187.806,112.021)">
            <path d="M0,-12.073l-4.934,0l0,12.073l2.658,0l0,-3.621l2.016,0c2.709,0 4.883,-1.449 4.883,-4.245l0,-0.033c0,-2.468 -1.742,-4.174 -4.623,-4.174m1.932,4.26c0,1.035 -0.777,1.829 -2.105,1.829l-2.103,0l0,-3.691l2.051,0c1.329,0 2.157,0.637 2.157,1.827l0,0.035Z" style="fill:#005595;fill-rule:nonzero;"/>
        </g>
        <g transform="matrix(1,0,0,1,282.877,102.191)">
            <path d="M0,7.587c-2.069,-0 -3.501,-1.724 -3.501,-3.794l0,-0.035c0,-2.07 1.466,-3.76 3.501,-3.76c1.207,-0 2.155,0.518 3.088,1.363l1.689,-1.949c-1.122,-1.104 -2.483,-1.862 -4.76,-1.862c-3.707,0 -6.295,2.81 -6.295,6.243l-0,0.034c-0,3.467 2.638,6.21 6.191,6.21c2.329,0 3.708,-0.829 4.951,-2.157l-1.691,-1.708c-0.948,0.863 -1.793,1.415 -3.173,1.415" style="fill:#005595;fill-rule:nonzero;"/>
        </g>
        <g transform="matrix(1,0,0,1,255.813,107.176)">
            <path d="M0,-2.382c-2.087,-0.534 -2.606,-0.793 -2.606,-1.587l0,-0.033c0,-0.588 0.536,-1.054 1.554,-1.054c1.018,0 2.071,0.448 3.138,1.192l1.381,-2.001c-1.226,-0.983 -2.726,-1.536 -4.485,-1.536c-2.465,0 -4.226,1.449 -4.226,3.64l0,0.034c0,2.396 1.57,3.069 4.003,3.692c2.016,0.517 2.429,0.861 2.429,1.534l-0,0.035c-0,0.707 -0.655,1.138 -1.741,1.138c-1.38,-0 -2.518,-0.57 -3.603,-1.466l-1.572,1.88c1.45,1.294 3.295,1.933 5.124,1.933c2.605,0 4.432,-1.347 4.432,-3.744l-0,-0.035c-0,-2.104 -1.381,-2.983 -3.828,-3.622" style="fill:#005595;fill-rule:nonzero;"/>
        </g>
        <g transform="matrix(1,0,0,1,293.813,112.021)">
            <path d="M0,-12.073l-2.656,0l0,12.073l8.676,0l0,-2.414l-6.02,0l0,-9.659Z" style="fill:#005595;fill-rule:nonzero;"/>
        </g>
        <g transform="matrix(1,0,0,1,267.128,112.021)">
            <path d="M0,-12.16l-5.173,12.16l2.707,0l1.105,-2.707l5.105,0l1.104,2.707l2.775,0l-5.175,-12.16l-2.448,0Zm-0.414,7.106l1.605,-3.916l1.603,3.916l-3.208,0Z" style="fill:#005595;fill-rule:nonzero;"/>
        </g>
        <g transform="matrix(1,0,0,1,0,56.204)">
            <rect x="241.997" y="49.21" width="5.312" height="2.519" style="fill:#005595;"/>
        </g>
        <g transform="matrix(1,0,0,1,219.471,108.001)">
            <path d="M0,-4.035l0,-0.034c0,-2.485 -1.708,-3.985 -4.553,-3.985l-5.52,0l0,12.073l2.656,0l0,-3.863l2.088,-0l2.588,3.863l3.103,0l-2.949,-4.312c1.536,-0.568 2.587,-1.793 2.587,-3.742m-2.69,0.138c-0,1.017 -0.742,1.708 -2.036,1.708l-2.691,0l-0,-3.467l2.641,0c1.294,0 2.086,0.586 2.086,1.724l-0,0.035Z" style="fill:#005595;fill-rule:nonzero;"/>
        </g>
        <g transform="matrix(1,0,0,1,0,54.824)">
            <rect x="223.283" y="45.123" width="2.656" height="12.073" style="fill:#005595;"/>
        </g>
        <g transform="matrix(1,0,0,1,168.62,111.349)">
            <path d="M0,1.04c-0.07,0 -0.13,-0.021 -0.19,-0.04c-0.06,-0.03 -0.121,-0.061 -0.161,-0.11c-0.099,-0.1 -0.149,-0.22 -0.149,-0.36c0,-0.131 0.05,-0.261 0.149,-0.35c0.13,-0.14 0.361,-0.18 0.54,-0.11c0.061,0.03 0.121,0.06 0.17,0.11c0.09,0.089 0.141,0.219 0.141,0.35c-0,0.14 -0.051,0.27 -0.141,0.36c-0.049,0.049 -0.109,0.08 -0.17,0.11c-0.059,0.019 -0.12,0.04 -0.189,0.04" style="fill:#005595;fill-rule:nonzero;"/>
        </g>
        <g transform="matrix(-1,0,0,1,328.322,68.1174)">
            <path d="M-0.001,-8.46c2.336,0 4.23,1.894 4.23,4.23c-0,2.336 -1.894,4.23 -4.23,4.23c-2.336,0 -4.229,-1.894 -4.229,-4.23c-0,-2.336 1.893,-4.23 4.229,-4.23" style="fill:#005595;fill-rule:nonzero;"/>
        </g>
        <g transform="matrix(1,0,0,1,319.206,69.2335)">
            <path d="M0,5.233c1.445,0 2.616,-1.172 2.616,-2.618c-0,-1.444 -1.171,-2.615 -2.616,-2.615c-1.444,-0 -2.615,1.171 -2.615,2.615c0,1.446 1.171,2.618 2.615,2.618" style="fill:#005595;fill-rule:nonzero;"/>
        </g>
        <g transform="matrix(1,0,0,1,235.15,107.176)">
            <path d="M0,-2.382c-2.088,-0.534 -2.604,-0.793 -2.604,-1.587l0,-0.033c0,-0.588 0.535,-1.054 1.551,-1.054c1.02,0 2.071,0.448 3.139,1.192l1.38,-2.001c-1.224,-0.983 -2.726,-1.536 -4.485,-1.536c-2.465,0 -4.224,1.449 -4.224,3.64l0,0.034c0,2.396 1.568,3.069 4.001,3.692c2.018,0.517 2.431,0.861 2.431,1.534l0,0.035c0,0.707 -0.655,1.138 -1.741,1.138c-1.38,-0 -2.518,-0.57 -3.603,-1.466l-1.572,1.88c1.45,1.294 3.294,1.933 5.123,1.933c2.604,0 4.433,-1.347 4.433,-3.744l0,-0.035c0,-2.104 -1.381,-2.983 -3.829,-3.622" style="fill:#005595;fill-rule:nonzero;"/>
        </g>
        <g transform="matrix(1,0,0,1,168.12,109.899)">
            <path d="M0,-43.24c0,-0.28 0.22,-0.51 0.5,-0.51c0.279,0 0.5,0.23 0.5,0.51c0,0.27 -0.221,0.5 -0.5,0.5c-0.28,0 -0.5,-0.23 -0.5,-0.5m0,1.96c0,-0.27 0.22,-0.5 0.5,-0.5c0.279,0 0.5,0.23 0.5,0.5c0,0.28 -0.221,0.5 -0.5,0.5c-0.28,0 -0.5,-0.22 -0.5,-0.5m0,1.97c0,-0.28 0.22,-0.5 0.5,-0.5c0.279,0 0.5,0.22 0.5,0.5c0,0.28 -0.221,0.5 -0.5,0.5c-0.28,0 -0.5,-0.22 -0.5,-0.5m0,1.97c0,-0.28 0.22,-0.51 0.5,-0.51c0.279,0 0.5,0.23 0.5,0.51c0,0.27 -0.221,0.5 -0.5,0.5c-0.28,0 -0.5,-0.23 -0.5,-0.5m0,1.96c0,-0.28 0.22,-0.5 0.5,-0.5c0.279,0 0.5,0.22 0.5,0.5c0,0.28 -0.221,0.5 -0.5,0.5c-0.28,0 -0.5,-0.22 -0.5,-0.5m0,1.97c0,-0.28 0.22,-0.51 0.5,-0.51c0.279,0 0.5,0.23 0.5,0.51c0,0.27 -0.221,0.5 -0.5,0.5c-0.28,0 -0.5,-0.23 -0.5,-0.5m0,1.96c0,-0.27 0.22,-0.5 0.5,-0.5c0.279,0 0.5,0.23 0.5,0.5c0,0.28 -0.221,0.5 -0.5,0.5c-0.28,0 -0.5,-0.22 -0.5,-0.5m0,1.97c0,-0.28 0.22,-0.5 0.5,-0.5c0.279,0 0.5,0.22 0.5,0.5c0,0.27 -0.221,0.5 -0.5,0.5c-0.28,0 -0.5,-0.23 -0.5,-0.5m0,1.96c0,-0.27 0.22,-0.5 0.5,-0.5c0.279,0 0.5,0.23 0.5,0.5c0,0.28 -0.221,0.51 -0.5,0.51c-0.28,0 -0.5,-0.23 -0.5,-0.51m0,1.97c0,-0.28 0.22,-0.5 0.5,-0.5c0.279,0 0.5,0.22 0.5,0.5c0,0.28 -0.221,0.5 -0.5,0.5c-0.28,0 -0.5,-0.22 -0.5,-0.5m0,1.97c0,-0.28 0.22,-0.51 0.5,-0.51c0.279,0 0.5,0.23 0.5,0.51c0,0.27 -0.221,0.5 -0.5,0.5c-0.28,0 -0.5,-0.23 -0.5,-0.5m0,1.96c0,-0.281 0.22,-0.5 0.5,-0.5c0.279,0 0.5,0.219 0.5,0.5c0,0.28 -0.221,0.5 -0.5,0.5c-0.28,0 -0.5,-0.22 -0.5,-0.5m0,1.969c0,-0.279 0.22,-0.509 0.5,-0.509c0.279,0 0.5,0.23 0.5,0.509c0,0.271 -0.221,0.5 -0.5,0.5c-0.28,0 -0.5,-0.229 -0.5,-0.5m0,1.96c0,-0.269 0.22,-0.5 0.5,-0.5c0.279,0 0.5,0.231 0.5,0.5c0,0.281 -0.221,0.5 -0.5,0.5c-0.28,0 -0.5,-0.219 -0.5,-0.5m0,1.971c0,-0.28 0.22,-0.5 0.5,-0.5c0.279,0 0.5,0.22 0.5,0.5c0,0.279 -0.221,0.5 -0.5,0.5c-0.28,0 -0.5,-0.221 -0.5,-0.5m0,1.96c0,-0.271 0.22,-0.5 0.5,-0.5c0.279,-0 0.5,0.229 0.5,0.5c0,0.28 -0.221,0.51 -0.5,0.51c-0.28,-0 -0.5,-0.23 -0.5,-0.51m0,1.97c0,-0.281 0.22,-0.5 0.5,-0.5c0.279,-0 0.5,0.219 0.5,0.5c0,0.28 -0.221,0.5 -0.5,0.5c-0.28,-0 -0.5,-0.22 -0.5,-0.5m0,1.969c0,-0.279 0.22,-0.509 0.5,-0.509c0.279,-0 0.5,0.23 0.5,0.509c0,0.271 -0.221,0.5 -0.5,0.5c-0.28,-0 -0.5,-0.229 -0.5,-0.5m0,1.96c0,-0.269 0.22,-0.5 0.5,-0.5c0.279,-0 0.5,0.231 0.5,0.5c0,0.281 -0.221,0.5 -0.5,0.5c-0.28,-0 -0.5,-0.219 -0.5,-0.5m0,1.971c0,-0.28 0.22,-0.5 0.5,-0.5c0.279,-0 0.5,0.22 0.5,0.5c0,0.279 -0.221,0.5 -0.5,0.5c-0.28,-0 -0.5,-0.221 -0.5,-0.5m0,1.97c0,-0.28 0.22,-0.51 0.5,-0.51c0.279,-0 0.5,0.23 0.5,0.51c0,0.269 -0.221,0.5 -0.5,0.5c-0.28,-0 -0.5,-0.231 -0.5,-0.5m0,1.96c0,-0.28 0.22,-0.5 0.5,-0.5c0.279,0 0.5,0.22 0.5,0.5c0,0.28 -0.221,0.5 -0.5,0.5c-0.28,0 -0.5,-0.22 -0.5,-0.5m0,1.97c0,-0.28 0.22,-0.51 0.5,-0.51c0.279,0 0.5,0.23 0.5,0.51c0,0.27 -0.221,0.5 -0.5,0.5c-0.28,-0 -0.5,-0.23 -0.5,-0.5" style="fill:#005595;fill-rule:nonzero;"/>
        </g>
        <g transform="matrix(1,0,0,1,168.621,111.885)">
            <path d="M0,0l0,0" style="fill:none;fill-rule:nonzero;stroke:#005595;stroke-width:1px;"/>
        </g>
        <g transform="matrix(1,0,0,1,168.62,64.1492)">
            <path d="M0,1.04c-0.13,0 -0.261,-0.05 -0.351,-0.15c-0.099,-0.09 -0.149,-0.22 -0.149,-0.35c0,-0.13 0.05,-0.26 0.149,-0.36c0.141,-0.14 0.361,-0.18 0.54,-0.1c0.061,0.02 0.121,0.06 0.17,0.1c0.09,0.1 0.141,0.23 0.141,0.36c-0,0.13 -0.051,0.26 -0.141,0.35c-0.099,0.1 -0.229,0.15 -0.359,0.15" style="fill:#005595;fill-rule:nonzero;"/>
        </g>
    </g>
</svg>
