<?xml version="1.0" encoding="UTF-8" standalone="no"?>
<!DOCTYPE svg PUBLIC "-//W3C//DTD SVG 1.1//EN" "http://www.w3.org/Graphics/SVG/1.1/DTD/svg11.dtd">
<svg width="100%" height="100%" viewBox="0 0 1200 600" version="1.1" xmlns="http://www.w3.org/2000/svg" xmlns:xlink="http://www.w3.org/1999/xlink" xml:space="preserve" xmlns:serif="http://www.serif.com/" style="fill-rule:evenodd;clip-rule:evenodd;stroke-linejoin:round;stroke-miterlimit:2;">
    <g transform="matrix(6.10629,0,0,6.10629,79.2647,170.154)">
        <g id="Product-page-v2">
            <g id="molecules-global-nav" serif:id="molecules/global-nav">
                <g id="logo-snapgene" serif:id="logo/snapgene">
                    <path id="Combined-Shape" d="M22.087,6.025L22.087,25.405C22.087,31.369 19.049,40.313 16.011,40.313C12.974,40.313 9.936,31.369 9.936,25.405L9.936,6.025L22.087,6.025ZM22.606,2.215C23.158,2.215 23.606,2.663 23.606,3.215L23.606,3.358C26.84,3.358 28.542,4.782 28.542,7.549L28.681,7.549C29.234,7.549 29.681,7.997 29.681,8.549L29.681,19.502C29.681,20.055 29.234,20.502 28.681,20.502L27.644,20.502C27.091,20.502 26.644,20.055 26.644,19.502L26.644,8.549C26.644,7.997 27.091,7.549 27.644,7.549L27.783,7.549C27.783,5.236 26.448,4.12 23.606,4.12L23.606,4.263C23.606,4.815 23.158,5.263 22.606,5.263L9.417,5.263C8.865,5.263 8.417,4.815 8.417,4.263L8.417,3.215C8.417,2.663 8.865,2.215 9.417,2.215L22.606,2.215ZM32.997,9.073C34.102,9.073 34.997,9.968 34.997,11.073L34.997,16.978C34.997,18.083 34.102,18.978 32.997,18.978L30.441,18.978L30.441,9.073L32.997,9.073Z" style="fill:rgb(20,189,200);"/>
                    <path id="Snap" d="M40.756,30.674L42.788,28.118C43.784,28.986 44.742,29.621 45.664,30.023C46.586,30.424 47.561,30.625 48.589,30.625C49.65,30.625 50.499,30.429 51.135,30.035C51.771,29.642 52.09,29.117 52.09,28.462C52.09,27.872 51.873,27.413 51.441,27.085C51.008,26.757 50.286,26.511 49.275,26.347L45.872,25.757C44.404,25.512 43.29,24.995 42.531,24.209C41.772,23.422 41.393,22.406 41.393,21.16C41.393,19.554 42.001,18.284 43.216,17.35C44.432,16.415 46.076,15.948 48.149,15.948C49.389,15.948 50.641,16.161 51.906,16.587C53.171,17.014 54.276,17.604 55.223,18.357L53.313,21.013C52.4,20.308 51.502,19.787 50.621,19.451C49.74,19.116 48.834,18.948 47.904,18.948C46.957,18.948 46.199,19.124 45.627,19.476C45.056,19.828 44.771,20.3 44.771,20.89C44.771,21.414 44.958,21.824 45.334,22.119C45.709,22.414 46.337,22.627 47.219,22.758L50.45,23.299C52.147,23.578 53.424,24.123 54.28,24.934C55.137,25.745 55.565,26.815 55.565,28.142C55.565,29.814 54.909,31.15 53.595,32.149C52.281,33.149 50.531,33.649 48.344,33.649C46.974,33.649 45.623,33.387 44.293,32.862C42.964,32.338 41.785,31.609 40.756,30.674ZM57.409,33.403L57.409,20.595L60.762,20.595L60.762,21.603C61.251,21.193 61.794,20.882 62.39,20.668C62.985,20.455 63.634,20.349 64.336,20.349C65.804,20.349 67.012,20.824 67.958,21.775C68.905,22.725 69.378,23.946 69.378,25.438L69.378,33.403L66.025,33.403L66.025,25.93C66.025,25.126 65.784,24.479 65.303,23.987C64.821,23.496 64.181,23.25 63.381,23.25C62.826,23.25 62.324,23.36 61.876,23.582C61.427,23.803 61.056,24.118 60.762,24.528L60.762,33.403L57.409,33.403ZM75.896,33.625C74.526,33.625 73.408,33.26 72.543,32.531C71.678,31.801 71.246,30.855 71.246,29.691C71.246,28.478 71.711,27.528 72.641,26.839C73.571,26.151 74.852,25.807 76.484,25.807C77.006,25.807 77.528,25.848 78.05,25.93C78.573,26.011 79.087,26.134 79.592,26.298L79.592,25.389C79.592,24.651 79.364,24.094 78.907,23.717C78.45,23.34 77.781,23.151 76.9,23.151C76.361,23.151 75.778,23.238 75.15,23.41C74.522,23.582 73.808,23.848 73.008,24.209L71.784,21.726C72.78,21.267 73.746,20.922 74.685,20.693C75.623,20.464 76.549,20.349 77.463,20.349C79.176,20.349 80.51,20.763 81.465,21.59C82.42,22.418 82.897,23.586 82.897,25.094L82.897,33.403L79.592,33.403L79.592,32.518C79.054,32.895 78.487,33.174 77.891,33.354C77.296,33.534 76.631,33.625 75.896,33.625ZM74.452,29.617C74.452,30.109 74.664,30.498 75.089,30.785C75.513,31.072 76.076,31.215 76.778,31.215C77.332,31.215 77.842,31.146 78.307,31.006C78.772,30.867 79.201,30.666 79.592,30.404L79.592,28.486C79.185,28.322 78.756,28.204 78.307,28.13C77.859,28.056 77.389,28.019 76.9,28.019C76.133,28.019 75.533,28.163 75.101,28.449C74.668,28.736 74.452,29.126 74.452,29.617ZM85.376,38.541L85.376,20.595L88.681,20.595L88.681,21.652C89.187,21.242 89.75,20.935 90.37,20.73C90.99,20.525 91.635,20.423 92.304,20.423C93.201,20.423 94.046,20.595 94.837,20.939C95.628,21.283 96.318,21.75 96.905,22.34C97.493,22.93 97.954,23.627 98.288,24.43C98.623,25.233 98.79,26.093 98.79,27.011C98.79,27.929 98.619,28.79 98.276,29.593C97.933,30.396 97.468,31.092 96.881,31.682C96.293,32.272 95.596,32.735 94.788,33.071C93.98,33.407 93.12,33.575 92.206,33.575C91.586,33.575 90.978,33.489 90.382,33.317C89.787,33.145 89.236,32.895 88.73,32.567L88.73,38.541L85.376,38.541ZM91.765,23.299C91.161,23.299 90.598,23.401 90.076,23.606C89.554,23.811 89.105,24.11 88.73,24.504L88.73,29.543C89.089,29.904 89.534,30.191 90.064,30.404C90.594,30.617 91.161,30.724 91.765,30.724C92.809,30.724 93.691,30.367 94.409,29.654C95.127,28.941 95.486,28.06 95.486,27.011C95.486,25.962 95.123,25.081 94.396,24.368C93.67,23.655 92.793,23.299 91.765,23.299Z" style="fill:rgb(229,25,22);fill-rule:nonzero;"/>
                    <path id="Gene" d="M119.082,24.833C119.082,26.093 118.867,27.267 118.435,28.355C118.004,29.443 117.409,30.376 116.652,31.153C115.895,31.93 114.987,32.543 113.929,32.993C112.871,33.443 111.731,33.668 110.51,33.668C109.24,33.668 108.051,33.439 106.944,32.981C105.836,32.523 104.88,31.897 104.074,31.104C103.268,30.31 102.629,29.373 102.156,28.293C101.684,27.214 101.448,26.052 101.448,24.808C101.448,23.565 101.68,22.403 102.144,21.323C102.608,20.243 103.243,19.307 104.049,18.513C104.855,17.719 105.812,17.094 106.919,16.635C108.026,16.177 109.207,15.948 110.461,15.948C111.877,15.948 113.213,16.235 114.466,16.807C115.72,17.38 116.754,18.165 117.568,19.163L115.101,21.446C114.499,20.726 113.803,20.174 113.013,19.789C112.223,19.405 111.373,19.212 110.461,19.212C109.695,19.212 108.983,19.356 108.324,19.642C107.664,19.928 107.094,20.321 106.614,20.82C106.134,21.319 105.759,21.908 105.49,22.587C105.222,23.266 105.087,24.007 105.087,24.808C105.087,25.61 105.226,26.355 105.503,27.042C105.779,27.729 106.162,28.322 106.651,28.821C107.139,29.32 107.721,29.713 108.397,29.999C109.073,30.286 109.793,30.429 110.558,30.429C111.763,30.429 112.801,30.093 113.673,29.422C114.544,28.752 115.085,27.893 115.297,26.845L110.241,26.845L110.241,23.753L119.082,23.753L119.082,24.833ZM132.621,31.803C131.839,32.441 131.037,32.908 130.215,33.202C129.393,33.497 128.477,33.644 127.467,33.644C126.507,33.644 125.607,33.472 124.768,33.128C123.93,32.785 123.205,32.319 122.595,31.729C121.984,31.14 121.504,30.441 121.154,29.631C120.804,28.821 120.629,27.95 120.629,27.017C120.629,26.101 120.795,25.238 121.129,24.428C121.463,23.618 121.923,22.914 122.509,22.317C123.095,21.72 123.791,21.25 124.597,20.906C125.403,20.562 126.262,20.391 127.174,20.391C128.07,20.391 128.904,20.566 129.678,20.918C130.451,21.27 131.119,21.749 131.68,22.354C132.242,22.959 132.682,23.683 132.999,24.526C133.317,25.369 133.476,26.281 133.476,27.263L133.476,28.146L123.999,28.146C124.227,28.948 124.667,29.594 125.318,30.085C125.969,30.576 126.735,30.821 127.614,30.821C128.167,30.821 128.689,30.731 129.177,30.551C129.665,30.371 130.081,30.118 130.423,29.791L132.621,31.803ZM127.101,23.164C126.336,23.164 125.676,23.397 125.123,23.863C124.569,24.33 124.186,24.956 123.975,25.741L130.203,25.741C129.991,24.988 129.604,24.371 129.043,23.888C128.481,23.405 127.834,23.164 127.101,23.164ZM135.461,33.398L135.461,20.611L138.807,20.611L138.807,21.618C139.296,21.209 139.837,20.898 140.432,20.685C141.026,20.472 141.673,20.366 142.373,20.366C143.839,20.366 145.044,20.84 145.988,21.789C146.933,22.738 147.405,23.957 147.405,25.446L147.405,33.398L144.059,33.398L144.059,25.937C144.059,25.136 143.818,24.489 143.338,23.998C142.858,23.507 142.219,23.262 141.421,23.262C140.867,23.262 140.367,23.373 139.919,23.593C139.471,23.814 139.101,24.129 138.807,24.538L138.807,33.398L135.461,33.398ZM161.285,31.803C160.503,32.441 159.702,32.908 158.879,33.202C158.057,33.497 157.141,33.644 156.132,33.644C155.171,33.644 154.271,33.472 153.433,33.128C152.594,32.785 151.87,32.319 151.259,31.729C150.648,31.14 150.168,30.441 149.818,29.631C149.468,28.821 149.293,27.95 149.293,27.017C149.293,26.101 149.46,25.238 149.793,24.428C150.127,23.618 150.587,22.914 151.173,22.317C151.76,21.72 152.456,21.25 153.262,20.906C154.068,20.562 154.927,20.391 155.838,20.391C156.734,20.391 157.568,20.566 158.342,20.918C159.115,21.27 159.783,21.749 160.345,22.354C160.906,22.959 161.346,23.683 161.664,24.526C161.981,25.369 162.14,26.281 162.14,27.263L162.14,28.146L152.663,28.146C152.891,28.948 153.331,29.594 153.982,30.085C154.634,30.576 155.399,30.821 156.278,30.821C156.832,30.821 157.353,30.731 157.841,30.551C158.33,30.371 158.745,30.118 159.087,29.791L161.285,31.803ZM155.765,23.164C155,23.164 154.34,23.397 153.787,23.863C153.233,24.33 152.851,24.956 152.639,25.741L158.867,25.741C158.655,24.988 158.269,24.371 157.707,23.888C157.145,23.405 156.498,23.164 155.765,23.164Z" style="fill:rgb(23,27,28);fill-rule:nonzero;"/>
                </g>
            </g>
        </g>
    </g>
</svg>
