<svg clip-rule="evenodd" fill-rule="evenodd" stroke-linejoin="round" stroke-miterlimit="2" viewBox="0 0 1355 1355" xmlns="http://www.w3.org/2000/svg"><path d="m0 4.01c0-2.2 1.81-4.01 4.01-4.01h39.98c2.2 0 4.01 1.81 4.01 4.01v39.98c0 2.2-1.81 4.01-4.01 4.01h-39.98c-2.2 0-4.01-1.81-4.01-4.01v-39.98zm19 14.29h6.5v3.266c.937-1.878 3.338-3.566 6.945-3.566 6.914 0 8.555 3.738 8.555 10.597v12.703h-7v-11.141c0-3.906-.937-6.109-3.32-6.109-3.305 0-4.68 2.375-4.68 6.109v11.141h-7zm-12 22.7h7v-23h-7zm8-30.5c0 2.469-2.031 4.5-4.5 4.5s-4.5-2.031-4.5-4.5 2.031-4.5 4.5-4.5 4.5 2.031 4.5 4.5z" fill="#fff" transform="matrix(17.637 0 0 17.637 253.796 253.796)"/></svg>