<svg clip-rule="evenodd" fill-rule="evenodd" stroke-linejoin="round" stroke-miterlimit="2" viewBox="0 0 1355 1355" xmlns="http://www.w3.org/2000/svg"><path d="m153.623 301.589c94.344 0 145.936-78.161 145.936-145.936 0-2.221-.045-4.432-.147-6.631 10.014-7.239 18.72-16.272 25.588-26.557-9.191 4.082-19.081 6.834-29.456 8.074 10.59-6.348 18.72-16.396 22.554-28.372-9.912 5.875-20.885 10.148-32.568 12.449-9.359-9.969-22.689-16.204-37.439-16.204-28.328 0-51.299 22.97-51.299 51.287 0 4.026.451 7.939 1.33 11.695-42.627-2.143-80.427-22.554-105.722-53.589-4.409 7.578-6.947 16.386-6.947 25.779 0 17.796 9.056 33.505 22.825 42.695-8.413-.259-16.318-2.571-23.231-6.417-.011.214-.011.429-.011.654 0 24.844 17.683 45.582 41.15 50.285-4.307 1.172-8.841 1.804-13.521 1.804-3.304 0-6.518-.327-9.642-.925 6.53 20.378 25.464 35.207 47.916 35.625-17.558 13.757-39.672 21.955-63.704 21.955-4.139 0-8.221-.236-12.235-.71 22.7 14.547 49.653 23.039 78.623 23.039z" fill="#fff" fill-rule="nonzero" transform="matrix(4.16667 0 0 4.16667 -156.25 -156.252)"/></svg>