<svg clip-rule="evenodd" fill-rule="evenodd" stroke-linejoin="round" stroke-miterlimit="2" viewBox="0 0 742 335" xmlns="http://www.w3.org/2000/svg"><g fill-rule="nonzero" transform="matrix(4.16667 0 0 4.16667 0 -2.67499)"><path d="m0 .642h177.871v80.358h-177.871z" fill="#63003d"/><g fill="#fff"><path d="m159.698 14.518c-2.336 0-4.229 1.894-4.229 4.23s1.893 4.23 4.229 4.23 4.23-1.894 4.23-4.23-1.894-4.23-4.23-4.23z"/><path d="m150.582 29.327c1.444 0 2.616-1.172 2.616-2.618 0-1.443-1.172-2.615-2.616-2.615-1.445 0-2.616 1.172-2.616 2.615 0 1.446 1.171 2.618 2.616 2.618z"/><path d="m52.296 33.769h2.813v15.843h-2.813z"/><path d="m84.214 33.443c-4.337 0-7.609 3.553-7.609 8.263 0 4.709 3.398 8.26 7.907 8.26 2.661 0 4.667-.914 6.503-2.961l.179-.199-1.813-1.622-.178.186c-1.353 1.419-2.826 2.08-4.634 2.08-2.681 0-4.694-1.856-5.088-4.65h12.078l.027-.237c.031-.28.031-.524.031-.739 0-5.013-2.976-8.381-7.403-8.381zm-4.733 7.137c.386-2.77 2.275-4.679 4.673-4.679 2.973 0 4.308 2.365 4.592 4.679z"/><path d="m25.292 49.611h2.784v-15.842h-2.784v9.032c0 2.667-1.777 4.529-4.323 4.529-2.485 0-3.968-1.626-3.968-4.352v-9.209h-2.813v9.771c0 3.886 2.407 6.397 6.129 6.397 2.084 0 3.72-.79 4.975-2.408z"/><path d="m44.361 40.402v9.209h2.813v-9.772c0-3.885-2.407-6.396-6.129-6.396-2.079 0-3.748.806-4.975 2.396v-2.07h-2.813v15.842h2.813v-9.032c0-2.667 1.777-4.529 4.323-4.529 2.484 0 3.968 1.626 3.968 4.352z"/><path d="m68.046 49.729 6.893-15.96h-3.042l-5.002 12.262-4.974-12.262h-3.102l6.863 15.96z"/><path d="m98.486 43.246c0-4.104 2.279-6.753 5.805-6.753h.444v-2.98l-.256-.009c-2.458-.103-4.638 1.175-5.993 3.434v-3.17h-2.813v15.842h2.813z"/><path d="m137.537 49.877c1.066 0 1.98-.215 2.877-.682l.144-.073v-2.541l-.383.183c-.747.361-1.357.508-2.104.508-1.577 0-2.31-.725-2.31-2.281v-8.675h4.857v-2.547h-4.857v-5.224l-2.813 1.553v3.671h-2.971v2.547h2.971v8.973c0 2.959 1.63 4.588 4.589 4.588z"/><path d="m151.047 49.966c2.662 0 4.67-.914 6.505-2.96l.178-.2-1.812-1.622-.178.186c-1.354 1.418-2.827 2.08-4.633 2.08-2.683 0-4.696-1.856-5.089-4.649h12.076l.028-.237c.032-.282.032-.526.032-.741 0-5.012-2.975-8.38-7.404-8.38-4.338 0-7.608 3.553-7.608 8.262 0 4.71 3.398 8.261 7.905 8.261zm-.355-14.064c2.97 0 4.306 2.364 4.589 4.678h-9.263c.384-2.771 2.274-4.678 4.674-4.678z"/><path d="m114.198 40.354-.056-.018c-1.898-.577-3.693-1.123-3.693-2.421 0-1.168 1.083-1.955 2.696-1.955 1.392 0 2.951.51 4.385 1.438l.231.15 1.309-2.173-.213-.141c-1.641-1.084-3.754-1.732-5.653-1.732-3.225 0-5.478 1.913-5.478 4.649v.059c0 3.087 3.039 3.952 5.257 4.58 2.055.575 3.625 1.12 3.625 2.498 0 1.294-1.166 2.162-2.901 2.162-1.706 0-3.482-.659-5.141-1.902l-.218-.164-1.459 2.056.195.157c1.759 1.424 4.25 2.311 6.505 2.311 3.418 0 5.715-1.952 5.715-4.858v-.059c0-3.105-3.074-4.027-5.106-4.637z"/><path d="m123.803 33.769h2.813v15.843h-2.813z"/><path d="m29.994 54.722-5.175 12.16h2.709l1.104-2.707h5.104l1.104 2.707h2.777l-5.173-12.16zm-.414 7.106 1.604-3.916 1.604 3.916z"/><path d="m138.641 54.722-5.175 12.16h2.709l1.103-2.707h5.105l1.104 2.707h2.777l-5.175-12.16zm-.414 7.106 1.604-3.916 1.604 3.916z"/><path d="m152.265 59.655-2.881-4.847h-3.106l4.64 7.313v4.76h2.656v-4.81l4.641-7.263h-3.02z"/><path d="m19.18 54.809h-4.933v12.072h2.657v-3.62h2.017c2.709 0 4.882-1.449 4.882-4.245v-.033c0-2.468-1.742-4.174-4.623-4.174zm1.932 4.26c0 1.035-.776 1.829-2.104 1.829h-2.104v-3.691h2.052c1.328 0 2.156.637 2.156 1.827z"/><path d="m114.253 64.639c-2.07 0-3.501-1.724-3.501-3.794v-.034c0-2.07 1.465-3.761 3.501-3.761 1.207 0 2.155.519 3.087 1.364l1.69-1.95c-1.122-1.103-2.483-1.861-4.761-1.861-3.707 0-6.295 2.81-6.295 6.242v.034c0 3.467 2.639 6.21 6.192 6.21 2.329 0 3.708-.829 4.951-2.157l-1.692-1.708c-.948.863-1.793 1.415-3.172 1.415z"/><path d="m87.187 59.655c-2.086-.534-2.606-.793-2.606-1.587v-.033c0-.588.536-1.054 1.555-1.054 1.017 0 2.07.447 3.137 1.191l1.381-2.001c-1.225-.982-2.725-1.536-4.484-1.536-2.466 0-4.227 1.449-4.227 3.641v.034c0 2.396 1.571 3.068 4.003 3.691 2.017.518 2.43.862 2.43 1.535v.035c0 .707-.655 1.137-1.741 1.137-1.38 0-2.519-.57-3.604-1.465l-1.571 1.88c1.449 1.293 3.295 1.932 5.123 1.932 2.605 0 4.433-1.347 4.433-3.743v-.035c0-2.105-1.381-2.984-3.829-3.622z"/><path d="m125.188 54.809h-2.657v12.072h8.676v-2.413h-6.019z"/><path d="m98.503 54.722-5.172 12.16h2.706l1.104-2.707h5.107l1.103 2.707h2.776l-5.176-12.16zm-.414 7.106 1.605-3.916 1.604 3.916z"/><path d="m73.372 60.276h5.312v2.518h-5.312z"/><path d="m50.846 58.828v-.035c0-2.485-1.708-3.985-4.553-3.985h-5.52v12.073h2.656v-3.862h2.088l2.588 3.862h3.103l-2.949-4.311c1.536-.569 2.587-1.793 2.587-3.742zm-2.691.137c0 1.018-.741 1.708-2.035 1.708h-2.691v-3.466h2.64c1.294 0 2.086.585 2.086 1.723z"/><path d="m54.659 54.808h2.655v12.073h-2.655z"/><path d="m66.524 59.655c-2.088-.534-2.605-.793-2.605-1.587v-.033c0-.588.536-1.054 1.553-1.054 1.019 0 2.07.447 3.139 1.191l1.379-2.001c-1.223-.982-2.725-1.536-4.485-1.536-2.465 0-4.224 1.449-4.224 3.641v.034c0 2.396 1.569 3.068 4.001 3.691 2.019.518 2.431.862 2.431 1.535v.035c0 .707-.654 1.137-1.74 1.137-1.38 0-2.519-.57-3.604-1.465l-1.571 1.88c1.449 1.293 3.294 1.932 5.122 1.932 2.604 0 4.434-1.347 4.434-3.743v-.035c0-2.105-1.381-2.984-3.83-3.622z"/></g></g></svg>